<svg width="56" height="18" viewBox="0 0 56 18" fill="none" xmlns="http://www.w3.org/2000/svg">
<rect width="56" height="18" rx="4" fill="#16C784"/>
<g clipPath="url(#clip0_28_140)">
<path d="M13.1771 9.82332L10.6771 7.32332C10.6539 7.30008 10.6263 7.28164 10.5959 7.26906C10.5656 7.25648 10.5331 7.25 10.5002 7.25C10.4673 7.25 10.4348 7.25648 10.4045 7.26906C10.3741 7.28164 10.3465 7.30008 10.3233 7.32332L7.82332 9.82332C7.78832 9.85829 7.76448 9.90285 7.75481 9.95137C7.74515 9.99989 7.7501 10.0502 7.76904 10.0959C7.78798 10.1416 7.82005 10.1807 7.8612 10.2081C7.90235 10.2356 7.95072 10.2502 8.0002 10.2502H13.0002C13.0497 10.2502 13.098 10.2356 13.1392 10.2081C13.1803 10.1807 13.2124 10.1416 13.2314 10.0959C13.2503 10.0502 13.2552 9.99989 13.2456 9.95137C13.2359 9.90285 13.2121 9.85829 13.1771 9.82332Z" fill="white"/>
</g>
<path d="M17.2173 13V5.72727H20.0014C20.527 5.72727 20.9638 5.81013 21.3118 5.97585C21.6622 6.1392 21.9238 6.36293 22.0966 6.64702C22.2718 6.93111 22.3594 7.25308 22.3594 7.61293C22.3594 7.90885 22.3026 8.16217 22.1889 8.37287C22.0753 8.5812 21.9226 8.75047 21.7308 8.88068C21.5391 9.01089 21.3248 9.1044 21.0881 9.16122V9.23224C21.3461 9.24645 21.5935 9.32576 21.8303 9.47017C22.0694 9.61222 22.2647 9.81345 22.4162 10.0739C22.5677 10.3343 22.6435 10.6491 22.6435 11.0185C22.6435 11.3949 22.5523 11.7334 22.37 12.0341C22.1877 12.3324 21.9131 12.5679 21.5462 12.7408C21.1792 12.9136 20.7176 13 20.1612 13H17.2173ZM18.5348 11.8991H19.9517C20.4299 11.8991 20.7744 11.808 20.9851 11.6257C21.1982 11.4411 21.3047 11.2043 21.3047 10.9155C21.3047 10.7 21.2514 10.5059 21.1449 10.3331C21.0384 10.1579 20.8868 10.0206 20.6903 9.92116C20.4938 9.81937 20.2595 9.76847 19.9872 9.76847H18.5348V11.8991ZM18.5348 8.82031H19.8381C20.0653 8.82031 20.2701 8.77888 20.4524 8.69602C20.6347 8.6108 20.7779 8.49124 20.8821 8.33736C20.9886 8.18111 21.0419 7.99645 21.0419 7.78338C21.0419 7.50166 20.9425 7.26965 20.7436 7.08736C20.5471 6.90507 20.2547 6.81392 19.8665 6.81392H18.5348V8.82031ZM27.2093 10.706V7.54545H28.4949V13H27.2484V12.0305H27.1916C27.0685 12.3359 26.8661 12.5857 26.5843 12.7798C26.305 12.974 25.9605 13.071 25.551 13.071C25.1935 13.071 24.8774 12.9917 24.6028 12.8331C24.3306 12.6721 24.1175 12.4389 23.9636 12.1335C23.8097 11.8258 23.7328 11.4541 23.7328 11.0185V7.54545H25.0183V10.8196C25.0183 11.1652 25.113 11.4399 25.3024 11.6435C25.4918 11.8471 25.7404 11.9489 26.0481 11.9489C26.2375 11.9489 26.421 11.9027 26.5985 11.8104C26.7761 11.718 26.9217 11.5807 27.0353 11.3984C27.1513 11.2138 27.2093 10.983 27.2093 10.706ZM31.1023 5.72727V13H29.8168V5.72727H31.1023ZM33.7097 5.72727V13H32.4242V5.72727H33.7097ZM35.0316 13V7.54545H36.3171V13H35.0316ZM35.6779 6.77131C35.4743 6.77131 35.2991 6.70384 35.1523 6.56889C35.0056 6.43158 34.9322 6.26705 34.9322 6.07528C34.9322 5.88116 35.0056 5.71662 35.1523 5.58168C35.2991 5.44437 35.4743 5.37571 35.6779 5.37571C35.8839 5.37571 36.0591 5.44437 36.2035 5.58168C36.3503 5.71662 36.4237 5.88116 36.4237 6.07528C36.4237 6.26705 36.3503 6.43158 36.2035 6.56889C36.0591 6.70384 35.8839 6.77131 35.6779 6.77131ZM41.9501 8.98722L40.7782 9.11506C40.7451 8.99669 40.6871 8.88542 40.6042 8.78125C40.5237 8.67708 40.4148 8.59304 40.2775 8.52912C40.1402 8.4652 39.9721 8.43324 39.7733 8.43324C39.5057 8.43324 39.2808 8.49124 39.0985 8.60724C38.9186 8.72325 38.8298 8.87358 38.8322 9.05824C38.8298 9.21686 38.8878 9.34588 39.0062 9.44531C39.127 9.54474 39.3258 9.62642 39.6028 9.69034L40.5332 9.8892C41.0493 10.0005 41.4328 10.1768 41.6838 10.4183C41.9371 10.6598 42.0649 10.9759 42.0673 11.3665C42.0649 11.7098 41.9643 12.0128 41.7654 12.2756C41.569 12.536 41.2955 12.7396 40.9451 12.8864C40.5948 13.0331 40.1923 13.1065 39.7377 13.1065C39.0701 13.1065 38.5327 12.9669 38.1255 12.6875C37.7183 12.4058 37.4757 12.014 37.3975 11.5121L38.6511 11.3913C38.7079 11.6375 38.8287 11.8234 39.0133 11.9489C39.198 12.0743 39.4383 12.1371 39.7342 12.1371C40.0396 12.1371 40.2846 12.0743 40.4693 11.9489C40.6563 11.8234 40.7498 11.6683 40.7498 11.4837C40.7498 11.3274 40.6895 11.1984 40.5687 11.0966C40.4503 10.9948 40.2657 10.9167 40.0147 10.8622L39.0843 10.6669C38.5611 10.558 38.1741 10.3745 37.9231 10.1165C37.6722 9.85606 37.5479 9.52699 37.5502 9.12926C37.5479 8.79309 37.639 8.50189 37.8237 8.25568C38.0107 8.0071 38.2699 7.81534 38.6014 7.6804C38.9352 7.54309 39.3199 7.47443 39.7555 7.47443C40.3947 7.47443 40.8978 7.61056 41.2647 7.88281C41.6341 8.15507 41.8625 8.5232 41.9501 8.98722ZM44.4128 9.80398V13H43.1273V5.72727H44.3844V8.4723H44.4483C44.5762 8.16454 44.7739 7.92187 45.0414 7.74432C45.3113 7.56439 45.6545 7.47443 46.0712 7.47443C46.45 7.47443 46.7802 7.55374 47.062 7.71236C47.3437 7.87098 47.5615 8.10298 47.7154 8.40838C47.8716 8.71378 47.9498 9.08665 47.9498 9.52699V13H46.6642V9.72585C46.6642 9.3589 46.5695 9.07363 46.3801 8.87003C46.1931 8.66406 45.9303 8.56108 45.5918 8.56108C45.3645 8.56108 45.1609 8.6108 44.981 8.71023C44.8034 8.80729 44.6638 8.94815 44.562 9.13281C44.4625 9.31747 44.4128 9.54119 44.4128 9.80398Z" fill="white"/>
<defs>
<clipPath id="clip0_28_140">
<rect width="8" height="8" fill="white" transform="translate(6.5 5)"/>
</clipPath>
</defs>
</svg>
